<svg id="ae61722e-c8df-4f74-981e-cb59bb83fec6" xmlns="http://www.w3.org/2000/svg" viewBox="0 0 442.39 536.32">
  <defs>
    <style>
      .cls-1 {
        fill: #feb8b8;
      }

      .cls-2 {
        fill: #2f2e41;
      }

      .cls-3 {
        fill: #e6e6e6;
      }

      .cls-4 {
        fill: #3f3d56;
      }

      .cls-5 {
        opacity: 0.2;
        isolation: isolate;
      }

      .cls-6 {
        fill: #f50057;
      }

      .cls-7 {
        fill: #fff;
      }

      .cls-8 {
        fill: #31ad99;
      }
    </style>
  </defs>
  <title>mobile-svg</title>
  <path class="cls-1" d="M379.5,156.12l-16-10,9.83-25a13.42,13.42,0,0,1,11.8-8.49h0a13.43,13.43,0,0,1,11.31,21.67Z" transform="translate(0 -0.04)"/>
  <polygon class="cls-1" points="295.33 426.52 273.3 416.96 285.26 392.36 303.05 402.77 295.33 426.52"/>
  <path class="cls-2" d="M286.78,465.88,261.44,440a13,13,0,0,1,.06-18.37l12.76-12.76a4.16,4.16,0,0,1,5.88,0,3.86,3.86,0,0,1,.75,1c3.14,6.1,7.42,9.39,13,9.56,3.32.1,3.85,0,4.71,3.19l-1.07,24.17,4.39,5a10.32,10.32,0,0,1,.07,13.55h0a10.33,10.33,0,0,1-14.56,1.09A4.24,4.24,0,0,1,286.78,465.88Z" transform="translate(0 -0.04)"/>
  <path class="cls-2" d="M304.5,407.12l-23-11,19-120-92.88,7.74C178.25,286.31,154,260.05,160,231.18a37.34,37.34,0,0,1,13.54-22.06l92,11,59.64,8.2A29.5,29.5,0,0,1,350,251.22h0a29.5,29.5,0,0,1-.37,14.22Z" transform="translate(0 -0.04)"/>
  <circle class="cls-3" cx="145" cy="390.58" r="145"/>
  <path class="cls-4" d="M364.5,140.12l23,11-36.59,60.11a15.66,15.66,0,0,1-15.7,7.35h0a15.65,15.65,0,0,1-12.63-10.84l-40.87-78.18a20.88,20.88,0,0,1,8.83-28.19h0a21.56,21.56,0,0,1,2.79-1.21h0A20.91,20.91,0,0,1,320,113a1.39,1.39,0,0,0,.14.42l19.4,59.7Z" transform="translate(0 -0.04)"/>
  <path class="cls-2" d="M263.91,110.8c7.51,1,15.22-1.44,21.49-5.7s11.22-10.22,15.41-16.53a107.23,107.23,0,0,0,15.08-35,20.56,20.56,0,0,0,20,7C347.81,57.89,355,44,352.64,32S340.49,10.4,329.26,5.62,305.51,0,293.26,0C285.2,0,277,.43,269.42,3.2s-14.5,8.27-17.19,15.86c-1.69,4.77-1.63,10-3.55,14.71-3.48,8.49-12.5,13.12-21,16.64S210,57.49,205,65.18c-5.64,8.69-4,20.81,2.2,29.09s16.2,13.09,26.36,15.1,20.63,1.51,31,1" transform="translate(0 -0.04)"/>
  <polygon class="cls-1" points="260.33 426.52 238.3 416.96 250.26 392.36 268.05 402.77 260.33 426.52"/>
  <path class="cls-2" d="M251.78,465.88,226.44,440a13,13,0,0,1,.06-18.37l12.76-12.76a4.16,4.16,0,0,1,5.88,0,3.86,3.86,0,0,1,.75,1c3.14,6.1,7.42,9.39,13,9.56,3.32.1,3.85,0,4.71,3.19l-1.07,24.17,4.39,5a10.32,10.32,0,0,1,.07,13.55h0a10.33,10.33,0,0,1-14.56,1.09A4.24,4.24,0,0,1,251.78,465.88Z" transform="translate(0 -0.04)"/>
  <path class="cls-2" d="M266.5,413.12l-23-11,19-120-92.88,7.74C140.25,292.31,116,266.05,122,237.18a37.34,37.34,0,0,1,13.54-22.06l92,11,59.64,8.2A29.5,29.5,0,0,1,312,257.22h0a29.5,29.5,0,0,1-.37,14.22Z" transform="translate(0 -0.04)"/>
  <circle class="cls-1" cx="300" cy="48.58" r="36.5"/>
  <path class="cls-1" d="M274.5,134.12l-15-41c10.65-11.3,13-25.17,9-41l43,24Z" transform="translate(0 -0.04)"/>
  <path class="cls-4" d="M244.5,231.12c-26.7,8.91-62,6-106.3-9.16a7.78,7.78,0,0,1-4.8-9.9,7.89,7.89,0,0,1,1.43-2.5c29.86-35.1,56.65-69.47,78.76-102.74a58.2,58.2,0,0,1,33.55-21.2l20.38-4.47,31,16,8.12,4.59a16.22,16.22,0,0,1,6.14,22.1c-.14.25-.28.49-.43.73-12.45,30.41-28.68,58.17-56.83,77.58Z" transform="translate(0 -0.04)"/>
  <path class="cls-2" d="M300.85,41.52a39.14,39.14,0,0,0,19,15.69c5.56,2.14,12.62,2.67,16.8-1.58,3-3.09,3.63-7.83,3.2-12.13-1.34-13.42-11.42-25.1-23.94-30.13s-27-3.93-39.44,1.16c-11.78,4.8-23,14.64-23.61,27.35-.32,6.51,2,13.68-1.46,19.19-2.63,4.14-7.72,5.82-12.27,7.66s-9.45,4.73-10.38,9.55c-.64,3.28.83,6.7,3.14,9.12a24.67,24.67,0,0,0,8.42,5.28c7.43,3.16,15.6,5.13,23.59,3.91s15.69-6.08,18.81-13.53c2.41-5.73,1.92-12.2,1.64-18.41s-.21-12.83,3.13-18,11-8.21,16-4.45" transform="translate(0 -0.04)"/>
  <path class="cls-5" d="M212,146.62s29,72,36,76,7-6,7-6Z" transform="translate(0 -0.04)"/>
  <path class="cls-6" d="M439.62,123.15l-176,28.63a3.31,3.31,0,0,1-3.79-2.73l-7.1-43.66a3.31,3.31,0,0,1,2.73-3.79L431.46,73a3.31,3.31,0,0,1,3.79,2.73l7.1,43.66A3.31,3.31,0,0,1,439.62,123.15Z" transform="translate(0 -0.04)"/>
  <circle class="cls-7" cx="282.35" cy="122.94" r="13.87"/>
  <path class="cls-7" d="M312.48,108.71a2.31,2.31,0,0,0,.74,4.56h0l107.56-17.5a2.31,2.31,0,1,0-.6-4.58l-.13,0h0Z" transform="translate(0 -0.04)"/>
  <path class="cls-7" d="M314.7,122.4a2.31,2.31,0,1,0,.75,4.56h0L423,109.46a2.31,2.31,0,0,0-.68-4.57h-.06Z" transform="translate(0 -0.04)"/>
  <path class="cls-1" d="M311.5,173.12l-16-10,9.83-25a13.42,13.42,0,0,1,11.8-8.49h0a13.43,13.43,0,0,1,11.31,21.67Z" transform="translate(0 -0.04)"/>
  <path class="cls-4" d="M295.5,157.12l23,11-36.59,60.11a15.66,15.66,0,0,1-15.7,7.35h0a15.65,15.65,0,0,1-12.63-10.84l-40.87-78.18a20.88,20.88,0,0,1,8.83-28.19h0a21.56,21.56,0,0,1,2.79-1.21h0A20.91,20.91,0,0,1,251,130a1.39,1.39,0,0,0,.14.42l19.4,59.7Z" transform="translate(0 -0.04)"/>
  <path class="cls-8" d="M407.51,394.19c-11.65,16.43-14.73,110.2-15.37,140.24v1.93H362.56c-.36-.64-.69-1.27-1-1.93-17.48-34.5-7.78-75.87-7.27-78C353,463,359,482.07,365.76,500.53,369.89,443.8,405.29,397.06,407.51,394.19Z" transform="translate(0 -0.04)"/>
</svg>
