<svg id="ae61722e-c8df-4f74-981e-cb59bb83fec6" xmlns="http://www.w3.org/2000/svg" viewBox="0 0 442.39 535.62">
  <defs>
    <style>
      .cls-1 {
        fill: #feb8b8;
      }

      .cls-2 {
        fill: #2f2e41;
      }

      .cls-3 {
        fill: #e6e6e6;
      }

      .cls-4 {
        fill: #3f3d56;
      }

      .cls-5 {
        opacity: 0.2;
        isolation: isolate;
      }

      .cls-6 {
        fill: #f50057;
      }

      .cls-7 {
        fill: #fff;
      }
    </style>
  </defs>
  <title>mobile-svg</title>
  <path class="cls-1" d="M383.36,223.5l-16-10,9.83-25a13.42,13.42,0,0,1,11.8-8.49h0a13.43,13.43,0,0,1,11.31,21.67Z" transform="translate(-3.86 -67.38)"/>
  <polygon class="cls-1" points="295.33 426.56 273.3 417 285.26 392.4 303.05 402.81 295.33 426.56"/>
  <path class="cls-2" d="M290.64,533.26,265.3,507.42a13,13,0,0,1,.06-18.37l12.76-12.76a4.16,4.16,0,0,1,5.88,0,3.74,3.74,0,0,1,.75,1c3.14,6.1,7.42,9.39,13,9.56,3.32.1,3.85,0,4.71,3.19l-1.07,24.17,4.39,5a10.32,10.32,0,0,1,.07,13.55h0a10.33,10.33,0,0,1-14.56,1.09C291,533.65,290.84,533.46,290.64,533.26Z" transform="translate(-3.86 -67.38)"/>
  <path class="cls-2" d="M308.36,474.5l-23-11,19-120-92.88,7.74c-29.37,2.45-53.61-23.81-47.66-52.68a37.34,37.34,0,0,1,13.54-22.06l92,11L329,295.7a29.5,29.5,0,0,1,24.81,22.9h0a29.5,29.5,0,0,1-.37,14.22Z" transform="translate(-3.86 -67.38)"/>
  <circle class="cls-3" cx="145" cy="390.62" r="145"/>
  <path class="cls-4" d="M368.36,207.5l23,11-36.59,60.11a15.66,15.66,0,0,1-15.7,7.35h0a15.66,15.66,0,0,1-12.63-10.84l-40.87-78.18a20.89,20.89,0,0,1,8.84-28.2,21.56,21.56,0,0,1,2.79-1.21h0a20.91,20.91,0,0,1,26.62,12.85c0,.14.09.28.14.42l19.4,59.7Z" transform="translate(-3.86 -67.38)"/>
  <path class="cls-2" d="M267.77,178.18c7.51,1,15.22-1.44,21.49-5.7s11.22-10.22,15.41-16.53a107.27,107.27,0,0,0,15.08-35,20.56,20.56,0,0,0,20,7c11.92-2.68,19.07-16.59,16.75-28.59S344.35,77.78,333.12,73s-23.75-5.61-36-5.58c-8.06,0-16.27.39-23.84,3.16s-14.5,8.27-17.19,15.86c-1.69,4.77-1.63,10-3.55,14.71-3.48,8.49-12.5,13.12-21,16.64s-17.68,7.08-22.68,14.77c-5.64,8.69-4,20.81,2.2,29.09s16.2,13.09,26.36,15.1,20.63,1.51,31,1" transform="translate(-3.86 -67.38)"/>
  <polygon class="cls-1" points="260.33 426.56 238.3 417 250.26 392.4 268.05 402.81 260.33 426.56"/>
  <path class="cls-2" d="M255.64,533.26,230.3,507.42a13,13,0,0,1,.06-18.37l12.76-12.76a4.16,4.16,0,0,1,5.88,0,3.74,3.74,0,0,1,.75,1c3.14,6.1,7.42,9.39,13,9.56,3.32.1,3.85,0,4.71,3.19l-1.07,24.17,4.39,5a10.32,10.32,0,0,1,.07,13.55h0a10.33,10.33,0,0,1-14.56,1.09C256,533.65,255.84,533.46,255.64,533.26Z" transform="translate(-3.86 -67.38)"/>
  <path class="cls-2" d="M270.36,480.5l-23-11,19-120-92.88,7.74c-29.37,2.45-53.61-23.81-47.66-52.68a37.34,37.34,0,0,1,13.54-22.06l92,11L291,301.7a29.5,29.5,0,0,1,24.81,22.9h0a29.5,29.5,0,0,1-.37,14.22Z" transform="translate(-3.86 -67.38)"/>
  <circle class="cls-1" cx="300" cy="48.62" r="36.5"/>
  <path class="cls-1" d="M278.36,201.5l-15-41c10.65-11.3,13-25.17,9-41l43,24Z" transform="translate(-3.86 -67.38)"/>
  <path class="cls-4" d="M248.36,298.5c-26.7,8.91-62,6-106.3-9.16a7.78,7.78,0,0,1-3.37-12.4c29.86-35.1,56.65-69.47,78.76-102.74A58.17,58.17,0,0,1,251,153l20.38-4.47,31,16,8.12,4.59a16.22,16.22,0,0,1,6.14,22.1c-.14.25-.28.49-.43.73-12.45,30.41-28.68,58.17-56.83,77.58Z" transform="translate(-3.86 -67.38)"/>
  <path class="cls-2" d="M304.71,108.9a39.16,39.16,0,0,0,19,15.69c5.56,2.14,12.62,2.67,16.8-1.58,3-3.09,3.63-7.83,3.2-12.13-1.34-13.42-11.42-25.1-23.94-30.13s-26.95-3.93-39.44,1.16c-11.78,4.8-23,14.64-23.61,27.35-.32,6.51,2,13.68-1.46,19.19-2.63,4.14-7.72,5.82-12.27,7.66s-9.45,4.73-10.38,9.55c-.64,3.28.83,6.7,3.14,9.12a24.67,24.67,0,0,0,8.42,5.28c7.43,3.16,15.6,5.13,23.59,3.91s15.69-6.08,18.81-13.53c2.41-5.73,1.92-12.2,1.64-18.41S288,119.2,291.34,114s11-8.21,16-4.45" transform="translate(-3.86 -67.38)"/>
  <path class="cls-5" d="M215.86,214s29,72,36,76,7-6,7-6Z" transform="translate(-3.86 -67.38)"/>
  <path class="cls-6" d="M443.48,190.53l-176,28.63a3.31,3.31,0,0,1-3.79-2.73l-7.1-43.66a3.31,3.31,0,0,1,2.73-3.79l176-28.63a3.31,3.31,0,0,1,3.79,2.73l7.1,43.66A3.31,3.31,0,0,1,443.48,190.53Z" transform="translate(-3.86 -67.38)"/>
  <circle class="cls-7" cx="282.35" cy="122.98" r="13.87"/>
  <path class="cls-7" d="M316.34,176.09a2.31,2.31,0,0,0,.74,4.56h0l107.56-17.5a2.31,2.31,0,1,0-.73-4.56h0Z" transform="translate(-3.86 -67.38)"/>
  <path class="cls-7" d="M318.56,189.78a2.31,2.31,0,1,0,.75,4.56l107.56-17.5a2.31,2.31,0,1,0-.74-4.56Z" transform="translate(-3.86 -67.38)"/>
  <path class="cls-1" d="M315.36,240.5l-16-10,9.83-25a13.42,13.42,0,0,1,11.8-8.49h0a13.43,13.43,0,0,1,11.31,21.67Z" transform="translate(-3.86 -67.38)"/>
  <path class="cls-4" d="M299.36,224.5l23,11-36.59,60.11a15.66,15.66,0,0,1-15.7,7.35h0a15.66,15.66,0,0,1-12.63-10.84l-40.87-78.18a20.89,20.89,0,0,1,8.84-28.2,21.56,21.56,0,0,1,2.79-1.21h0a20.91,20.91,0,0,1,26.62,12.85c0,.14.09.28.14.42l19.4,59.7Z" transform="translate(-3.86 -67.38)"/>
  <path class="cls-3" d="M383.37,460.57C371.72,477,368.64,570.77,368,600.81c0,.68,0,1.32,0,1.93H338.42c-.36-.64-.69-1.27-1-1.93-17.48-34.5-7.78-75.87-7.27-78-1.33,6.58,4.68,25.64,11.47,44.1C345.75,510.18,381.15,463.44,383.37,460.57Z" transform="translate(-3.86 -67.38)"/>
</svg>
